<?xml version="1.0" encoding="utf-8"?>
<!-- Generator: Adobe Illustrator 23.0.0, SVG Export Plug-In . SVG Version: 6.00 Build 0)  -->
<svg version="1.1" id="Camada_1" xmlns="http://www.w3.org/2000/svg" xmlns:xlink="http://www.w3.org/1999/xlink" x="0px" y="0px"
	 viewBox="0 0 454.72 453.33" style="enable-background:new 0 0 454.72 453.33;" xml:space="preserve">
<style type="text/css">
	.st0{fill:url(#SVGID_1_);}
	.st1{fill:url(#SVGID_2_);}
	.st2{fill:url(#SVGID_3_);}
	.st3{fill:url(#SVGID_4_);}
</style>
<g>
	
		<linearGradient id="SVGID_1_" gradientUnits="userSpaceOnUse" x1="345.7837" y1="405.6651" x2="-170.9222" y2="121.9003" gradientTransform="matrix(1 0 0 -1 0 566.5)">
		<stop  offset="0" style="stop-color:#9547DB"/>
		<stop  offset="1" style="stop-color:#5F57EA"/>
	</linearGradient>
	<path class="st0" d="M67.38,0c106.99,0,213.98,0,320.97,0c2.55,0.35,5.14,0.23,7.68,0.72c12.81,2.49,24.07,8.05,33.84,16.71
		c6.94,6.15,12.42,13.41,16.45,21.73c4.01,8.27,6.38,16.99,6.9,26.22c0.2,3.45,0.22,6.89,0.22,10.33
		c0.01,102.34,0.02,204.67,0,307.01c0,10.84-2.28,21.23-7.11,30.95c-6.74,13.54-16.74,24.01-30.1,31.24
		c-8.29,4.49-17.13,7.12-26.48,8.03c-2.42,0.24-4.86,0.39-7.31,0.39c-104.01-0.02-208.02,0.01-312.03-0.04
		c-17.26-0.01-32.67-5.54-45.84-16.75c-13.44-11.44-21.48-26-24.15-43.48c-0.35-2.32-0.4-4.67-0.4-7.01C0,339.12,0,292.19,0,245.26
		c0-1.93,0.07-2.03,2.01-2.03c21.98-0.01,43.96-0.01,65.94,0c0.66,0,1.37-0.06,1.89,0.5c0.39,0.77,0.24,1.6,0.24,2.4
		c0.01,27.31,0.01,54.62,0.01,81.94c0,0.66-0.12,1.34,0.18,1.98c0.11,0.13,0.23,0.26,0.37,0.36c0.54,0.31,1.13,0.2,1.69,0.2
		c33.13,0,66.26,0,99.38,0c0.65,0,1.36,0.16,1.86-0.47c0.3-0.64,0.22-1.32,0.22-1.98c0-67.83,0-135.67,0-203.5
		c0-0.66,0.09-1.35-0.24-1.97c-0.57-0.65-1.33-0.44-2.02-0.45c-21.38-0.01-42.76-0.01-64.14-0.01c-0.81,0-1.63,0.1-2.42-0.15
		c-0.18-0.08-0.32-0.21-0.42-0.38c-0.29-0.64-0.2-1.31-0.2-1.98c-0.01-10.21-0.01-20.42,0-30.63c0-0.7-0.13-1.44,0.31-2.09
		c0.57-0.46,1.25-0.42,1.92-0.42c6.92,0.01,13.85-0.06,20.77,0.03c1.29-0.07,2.58-0.02,3.88-0.02c24.95,0,49.9,0,74.85,0
		c3.4,0,3.43,0.04,3.44,3.45c0,102.29,0,204.58,0,306.87c0,3.49-0.24,3.18,3.18,3.18c32.61,0.01,65.22,0,97.84,0
		c2.67,0,2.67,0,2.67-2.68c0-50.19,0-100.37,0-150.56c0-3.65,0-3.65,3.65-3.65c9.48,0,18.96,0,28.45,0c0.34,0,0.67,0,1.01,0
		c2.28,0.03,2.57,0.3,2.57,2.58c0.01,15.76,0,31.51,0.01,47.27c0,0.52-0.11,1.05,0.11,1.58c0.58-0.11,0.84-0.6,1.2-0.95
		c21.78-21.77,43.55-43.54,65.33-65.31c0.2-0.2,0.41-0.4,0.61-0.61c1.2-1.25,1.22-1.43-0.02-2.67c-5.55-5.56-11.1-11.11-16.66-16.66
		c-16.39-16.39-32.78-32.78-49.17-49.17c-0.36-0.36-0.68-0.78-1.24-1.07c-0.27,0.57-0.16,1.09-0.16,1.59
		c-0.01,15.37-0.01,30.74-0.01,46.12c0,3.45-0.01,3.46-3.4,3.46c-20.83,0-41.66,0-62.49,0c-0.24,0-0.48,0-0.72,0
		c-2.92,0-2.92,0-2.92,2.86c0,50,0,99.99,0,149.99c0,4.04,0,4.04-3.98,4.04c-9.39,0-18.77,0-28.16,0c-0.57,0-1.15,0.02-1.72-0.02
		c-1.56-0.1-2-0.55-2.09-2.13c-0.04-0.77-0.02-1.53-0.02-2.3c0-102,0-204,0-306.01c0-3.29,0.22-3.04-3.02-3.04
		c-55.79,0-111.58,0-167.37,0c-2.83,0-2.83,0-2.83,2.81c0.03,28.16-0.09,56.32-0.05,84.47c0.01,4.69,0,9.39,0,14.08
		c0,0.64-0.14,1.34,0.5,1.81c0.79,0.31,1.61,0.2,2.42,0.2c21.06,0.01,42.12,0,63.19,0.01c3.67,0,3.79,0.12,3.79,3.79
		c0,44.37,0,88.75-0.01,133.12c0,0.99,0.19,2.02-0.36,2.95c-0.48,0.43-1.07,0.38-1.64,0.38c-10.58,0.01-21.16,0.01-31.73,0
		c-0.43,0-0.86,0.01-1.28-0.15c-0.18-0.08-0.32-0.21-0.42-0.37c-0.34-0.83-0.2-1.7-0.2-2.56c-0.01-27.15-0.01-54.29-0.01-81.44
		c0-0.66,0.12-1.34-0.18-1.98c-0.11-0.13-0.23-0.26-0.37-0.36c-0.68-0.35-1.42-0.2-2.12-0.2c-32.92-0.01-65.84-0.01-98.76-0.01
		c-0.85,0-1.73,0.13-2.56-0.19c-0.59-0.49-0.31-1.16-0.31-1.75c-0.01-32.55-0.01-65.1-0.01-97.64c0-13.69,0.12-27.38-0.03-41.07
		c-0.19-16.5,5.42-30.89,15.74-43.46C26.44,12.18,40.17,4.03,56.72,0.75c2.45-0.48,4.93-0.56,7.42-0.61c0.49,0,0.98,0,1.47,0
		C66.15,0.08,66.79,0.3,67.38,0z"/>
	
		<linearGradient id="SVGID_2_" gradientUnits="userSpaceOnUse" x1="65.5539" y1="566.3551" x2="67.3799" y2="566.3551" gradientTransform="matrix(1 0 0 -1 0 566.5)">
		<stop  offset="0" style="stop-color:#9547DB"/>
		<stop  offset="1" style="stop-color:#5F57EA"/>
	</linearGradient>
	<path class="st1" d="M67.38,0c-0.54,0.43-1.16,0.26-1.76,0.24c-0.07-0.06-0.08-0.12-0.05-0.17C65.6,0.02,65.63,0,65.66,0
		C66.23,0,66.8,0,67.38,0z"/>
	
		<linearGradient id="SVGID_3_" gradientUnits="userSpaceOnUse" x1="64.2" y1="566.37" x2="65.6551" y2="566.37" gradientTransform="matrix(1 0 0 -1 0 566.5)">
		<stop  offset="0" style="stop-color:#9547DB"/>
		<stop  offset="1" style="stop-color:#5F57EA"/>
	</linearGradient>
	<path class="st2" d="M65.66,0c-0.01,0.08-0.02,0.16-0.03,0.24c-0.47,0.01-0.95,0.01-1.42,0.02c0.04-0.08,0.05-0.17,0.02-0.26
		C64.7,0,65.18,0,65.66,0z"/>
	
		<linearGradient id="SVGID_4_" gradientUnits="userSpaceOnUse" x1="104.7199" y1="270.3958" x2="139.4899" y2="270.3958" gradientTransform="matrix(1 0 0 -1 0 566.5)">
		<stop  offset="0" style="stop-color:#9547DB"/>
		<stop  offset="1" style="stop-color:#5F57EA"/>
	</linearGradient>
	<path class="st3" d="M139.49,295.93c-0.34,0.49-0.86,0.32-1.32,0.32c-10.74,0.01-21.49,0.01-32.23,0c-0.42,0-0.87,0.11-1.22-0.24
		c11.36,0.01,22.71,0.02,34.07,0.02C139.02,296.04,139.26,295.97,139.49,295.93z"/>
</g>
</svg>
