<?xml version="1.0" encoding="utf-8"?>
<!-- Generator: Adobe Illustrator 23.0.0, SVG Export Plug-In . SVG Version: 6.00 Build 0)  -->
<svg version="1.1" id="Camada_1" xmlns="http://www.w3.org/2000/svg" xmlns:xlink="http://www.w3.org/1999/xlink" x="0px" y="0px"
	 viewBox="0 0 454 453" style="enable-background:new 0 0 454 453;" xml:space="preserve">
<style type="text/css">
	.st0{fill:url(#SVGID_1_);}
</style>
<linearGradient id="SVGID_1_" gradientUnits="userSpaceOnUse" x1="486.2472" y1="16.6126" x2="-214.694" y2="584.142">
	<stop  offset="0.031" style="stop-color:#9547DB"/>
	<stop  offset="1" style="stop-color:#5F57EA"/>
</linearGradient>
<path class="st0" d="M382.92-0.2H71.06c-39.1,0-70.8,31.7-70.8,70.8v311.86c0,39.1,31.7,70.8,70.8,70.8h18.9v-49.62
	c0-18.4,15.88-41.1,35.29-50.28l43.19-20.53l29.97,62.45l15.33-41.6c3.02,0.59,6.03,1.35,9.17,1.35c3.15,0,6.15-0.76,9.18-1.35
	l14.55,39.57L276,332.13l44.56,21.19c19.41,9.22,35.29,31.91,35.29,50.33v49.6h27.07c39.1,0,70.8-31.7,70.8-70.8V70.6
	C453.71,31.5,422.02-0.2,382.92-0.2z M203.42,80.58c2.81-2.88,5.73-4.46,8.81-4.78c3.55-0.4,7.11,0,10.64,1.16
	c3.53,1.19,7.73,2.98,12.61,5.34c10.86,5.33,17.1,10.91,18.71,16.75c1.41,5.12,0.17,11.76-3.81,19.91
	c-2.76,5.61-5.46,9.4-8.14,11.31c-2.66,1.9-5.81,2.99-9.44,3.23c-1.18,0.1-3.09,0.06-5.76-0.16c-2.66-0.21-4.65-0.33-5.97-0.37
	c-1.34-0.05-2.72,0.19-4.16,0.61c-1.74,0.25-2.98,0.92-3.7,1.91c-0.75,0.71-1.85,2.61-3.36,5.65l-14.1-6.9
	c2.1-4.31,3.86-7.45,5.29-9.44c1.41-1.97,3.43-3.44,5.97-4.4c2.56-0.99,6.1-1.35,10.63-1.1c2.11,0.2,3.92,0.37,5.43,0.52
	c1.51,0.13,2.88,0.15,4.08,0.06c1.2-0.08,2.26-0.38,3.18-0.81c2.41-1.17,4.5-3.54,6.25-7.14c2.25-4.62,3.02-8.03,2.23-10.23
	c-0.33-1.5-1.28-2.84-2.81-3.97c-1.53-1.11-3.92-2.48-7.16-4.07c-3.68-1.67-6.47-2.7-8.33-3.22c-1.85-0.47-3.46-0.44-4.82,0.2
	c-1.46,0.84-3.08,2.76-4.87,5.79c-0.02,0.44-0.22,1.01-0.59,1.77l-1.64,3.33l-14.11-6.89C197.66,88.11,200.65,83.42,203.42,80.58z
	 M190.25,145.47l14.12,6.89l-7.45,15.24l-14.12-6.91L190.25,145.47z M123.43,248.54l-5.95-13.51l12.55-5.52l5.95,13.54
	L123.43,248.54z M136.62,191.84c-0.24,2.85-1.29,5.54-3.17,8.09c-0.6,0.84-1.7,2.1-3.34,3.75c-1.64,1.65-2.83,2.91-3.61,3.79
	c-0.77,0.87-1.41,1.91-1.96,3.1c-0.79,1.33-1.06,2.5-0.8,3.52c0.09,0.94,0.71,2.74,1.9,5.44l-12.54,5.5
	c-1.68-3.83-2.78-6.77-3.3-8.83c-0.5-2.06-0.37-4.23,0.43-6.47c0.79-2.24,2.56-4.8,5.25-7.7c1.32-1.3,2.45-2.4,3.4-3.33
	c0.93-0.94,1.72-1.82,2.34-2.66c0.61-0.85,1.02-1.72,1.23-2.59c0.59-2.25,0.17-5-1.23-8.18c-1.81-4.11-3.65-6.53-5.55-7.25
	c-1.19-0.63-2.6-0.75-4.22-0.36c-1.62,0.38-3.85,1.21-6.74,2.48c-3.18,1.53-5.46,2.79-6.83,3.75c-1.37,0.97-2.24,2.06-2.58,3.33
	c-0.26,1.43,0.1,3.61,1.09,6.49c0.28,0.26,0.56,0.74,0.85,1.4l1.3,2.97L86,203.58c-2.54-5.79-3.98-10.41-4.31-13.89
	c-0.34-3.47,0.25-6.31,1.76-8.57c1.74-2.58,4-4.71,6.79-6.41c2.78-1.68,6.33-3.47,10.66-5.39c9.65-4.24,16.87-5.25,21.68-3.02
	c4.23,1.94,7.93,6.52,11.09,13.74C135.88,185.06,136.87,188.98,136.62,191.84z M222.92,332.12c-37.94,0-68.7-47.21-68.68-90.49
	c0-43.31,30.74-66.28,68.68-66.28c37.95,0,68.7,22.97,68.7,66.28C291.61,284.9,260.86,332.12,222.92,332.12z M315.97,250.4
	l-14.8-5.09l5.49-15.98l14.81,5.09L315.97,250.4z M362.88,195.68c-2.04,5.91-4.25,9.98-6.66,12.21c-2.41,2.21-5.39,3.66-8.95,4.34
	c-1.13,0.23-3.02,0.44-5.7,0.56c-2.64,0.13-4.64,0.23-5.95,0.38c-1.33,0.13-2.65,0.5-4.04,1.06c-1.71,0.51-2.85,1.31-3.43,2.36
	c-0.65,0.84-1.53,2.85-2.61,6.04l-14.81-5.1c1.56-4.52,2.92-7.83,4.09-9.96c1.16-2.14,2.96-3.83,5.37-5.08
	c2.42-1.29,5.87-2.07,10.39-2.4c2.1-0.06,3.9-0.12,5.44-0.16c1.5-0.07,2.86-0.2,4.03-0.43s2.21-0.64,3.04-1.22
	c2.23-1.42,4.01-4.05,5.31-7.84c1.67-4.84,1.99-8.3,0.98-10.37c-0.53-1.45-1.61-2.65-3.26-3.58c-1.67-0.93-4.19-1.97-7.59-3.14
	c-3.84-1.2-6.73-1.91-8.65-2.17c-1.88-0.26-3.47-0.01-4.73,0.79c-1.36,1.01-2.71,3.09-4.12,6.28c0.02,0.44-0.11,1.05-0.38,1.82
	l-1.21,3.49l-14.8-5.08c2.35-6.83,4.72-11.84,7.13-15.01c2.42-3.17,5.12-5.09,8.13-5.81c3.46-0.83,7.03-0.88,10.68-0.15
	c3.64,0.74,8.02,1.98,13.12,3.74c11.4,3.93,18.25,8.67,20.54,14.28C366.26,180.46,365.82,187.15,362.88,195.68z"/>
</svg>
