<?xml version="1.0" encoding="utf-8"?>
<!-- Generator: Adobe Illustrator 23.0.0, SVG Export Plug-In . SVG Version: 6.00 Build 0)  -->
<svg version="1.1" id="Camada_1" xmlns="http://www.w3.org/2000/svg" xmlns:xlink="http://www.w3.org/1999/xlink" x="0px" y="0px"
	 viewBox="0 0 453 454" style="enable-background:new 0 0 453 454;" xml:space="preserve">
<style type="text/css">
	.st0{fill:url(#SVGID_1_);}
</style>
<linearGradient id="SVGID_1_" gradientUnits="userSpaceOnUse" x1="485.3004" y1="17.069" x2="-215.6408" y2="584.5984">
	<stop  offset="0.031" style="stop-color:#9547DB"/>
	<stop  offset="1" style="stop-color:#5F57EA"/>
</linearGradient>
<path class="st0" d="M381.97,0.26H70.11c-39.1,0-70.8,31.7-70.8,70.8v311.86c0,39.1,31.7,70.8,70.8,70.8h311.86
	c39.1,0,70.8-31.7,70.8-70.8V71.05C452.77,31.95,421.07,0.26,381.97,0.26z M71.06,406.09c-12.74,0-23.06-10.32-23.06-23.06
	c0-12.74,10.32-23.06,23.06-23.06c12.74,0,23.06,10.32,23.06,23.06C94.12,395.76,83.8,406.09,71.06,406.09z M125.96,376.44
	c-16.98,0-30.75-13.77-30.75-30.75c0-16.98,13.77-30.75,30.75-30.75c16.98,0,30.75,13.77,30.75,30.75
	C156.71,362.67,142.95,376.44,125.96,376.44z M351.07,289.69c-2.2,41.73-53.81,57.1-79.06,25.26c-24.16,27.45-65.89,27.45-90.04-1.1
	c-27.45,6.59-57.1-13.18-54.9-48.32c-43.92-18.67-48.32-80.16-7.69-104.32c-24.16-43.92,16.47-96.63,65.89-85.65
	c21.96-26.35,61.49-28.55,85.65-6.59c37.34-21.96,83.45,2.2,88.95,43.92c36.24,5.49,49.41,50.51,24.16,75.77
	C415.86,223.8,397.19,282,351.07,289.69z"/>
</svg>
